<svg width="11" height="11" viewBox="0 0 11 11" fill="none" xmlns="http://www.w3.org/2000/svg">
<path fill-rule="evenodd" clip-rule="evenodd" d="M0.708849 0.982286C1.00294 0.688196 1.47976 0.688196 1.77385 0.982286L5.5013 4.70979L9.2288 0.982286C9.5229 0.688196 9.9998 0.688196 10.2938 0.982286C10.5879 1.27638 10.5879 1.7532 10.2938 2.04729L6.5663 5.7748L10.2938 9.5023C10.5879 9.7964 10.5879 10.2732 10.2938 10.5673C9.9998 10.8614 9.5229 10.8614 9.2288 10.5673L5.5013 6.8398L1.77385 10.5673C1.47976 10.8614 1.00294 10.8614 0.708849 10.5673C0.414759 10.2732 0.414759 9.7964 0.708849 9.5023L4.43635 5.7748L0.708849 2.04729C0.414759 1.7532 0.414759 1.27638 0.708849 0.982286Z" fill="white" fill-opacity="0.7"/>
</svg>
