<svg width="18" height="18" viewBox="0 0 18 18" fill="none" xmlns="http://www.w3.org/2000/svg">
<path d="M8.99984 0.666687C4.40817 0.666687 0.666504 4.40835 0.666504 9.00002C0.666504 13.5917 4.40817 17.3334 8.99984 17.3334C13.5915 17.3334 17.3332 13.5917 17.3332 9.00002C17.3332 4.40835 13.5915 0.666687 8.99984 0.666687ZM11.3248 9.44169L8.38317 12.3834C8.25817 12.5084 8.09984 12.5667 7.9415 12.5667C7.78317 12.5667 7.62484 12.5084 7.49984 12.3834C7.25817 12.1417 7.25817 11.7417 7.49984 11.5L9.99984 9.00002L7.49984 6.50002C7.25817 6.25835 7.25817 5.85835 7.49984 5.61669C7.7415 5.37502 8.1415 5.37502 8.38317 5.61669L11.3248 8.55835C11.5748 8.80002 11.5748 9.20002 11.3248 9.44169Z" fill="#868990"/>
</svg>
