<svg width="19" height="18" viewBox="0 0 19 18" fill="none" xmlns="http://www.w3.org/2000/svg">
<path fill-rule="evenodd" clip-rule="evenodd" d="M2.02119 7.12481C1.87116 7.72509 1.7915 8.35324 1.7915 9C1.7915 9.64683 1.87117 10.275 2.02123 10.8754C2.08061 10.8774 2.14007 10.8879 2.19778 10.9072C3.21887 11.2481 4.25804 11.5156 5.3075 11.7096C5.10561 9.90896 5.10561 8.09105 5.3075 6.29043C4.25804 6.48442 3.21886 6.75189 2.19778 7.09284C2.13925 7.11238 2.07987 7.12278 2.02119 7.12481ZM2.54482 5.67229C3.51448 5.38273 4.49786 5.15506 5.48911 4.98928C5.65034 4.0252 5.87012 3.06856 6.14845 2.12475C6.11026 2.12367 6.07293 2.11916 6.03675 2.11152C4.51513 2.878 3.28226 4.13381 2.54482 5.67229ZM7.62447 1.5214C8.2248 1.37134 8.85302 1.29167 9.49984 1.29167C10.1466 1.29167 10.7748 1.37133 11.375 1.52136C11.3771 1.58004 11.3875 1.63942 11.407 1.69795C11.748 2.71904 12.0154 3.75821 12.2094 4.80768C10.4088 4.60579 8.59088 4.60579 6.79025 4.80768C6.98425 3.75821 7.25172 2.71904 7.59266 1.69795C7.61193 1.64023 7.62244 1.58078 7.62447 1.5214ZM6.5903 6.09048C6.34468 8.02222 6.34468 9.97779 6.5903 11.9095C8.52205 12.1552 10.4776 12.1552 12.4094 11.9095C12.655 9.9778 12.655 8.02222 12.4094 6.09048C10.4776 5.84486 8.52205 5.84486 6.5903 6.09048ZM13.6922 6.29043C13.8941 8.09105 13.8941 9.90896 13.6922 11.7096C14.7416 11.5156 15.7808 11.2481 16.8019 10.9072C16.8596 10.8879 16.9191 10.8774 16.9784 10.8754C17.1285 10.275 17.2082 9.64683 17.2082 9C17.2082 8.35324 17.1285 7.72509 16.9785 7.12481C16.9198 7.12278 16.8604 7.11238 16.8019 7.09284C15.7808 6.75189 14.7416 6.48442 13.6922 6.29043ZM16.4549 5.67229C15.6957 4.08844 14.4114 2.80417 12.8276 2.04499C13.1171 3.01465 13.3448 3.99804 13.5106 4.98928C14.5018 5.15506 15.4852 5.38273 16.4549 5.67229ZM16.3751 12.3514C16.3762 12.3896 16.3807 12.4269 16.3883 12.4631C15.6218 13.9847 14.366 15.2176 12.8276 15.955C13.1171 14.9854 13.3448 14.002 13.5106 13.0107C14.4746 12.8495 15.4313 12.6297 16.3751 12.3514ZM12.2094 13.1923C10.4088 13.3942 8.59088 13.3942 6.79025 13.1923C6.98425 14.2418 7.25172 15.281 7.59266 16.3021C7.61193 16.3598 7.62244 16.4192 7.62447 16.4786C8.2248 16.6287 8.85302 16.7083 9.49984 16.7083C10.1466 16.7083 10.7748 16.6287 11.375 16.4787C11.3771 16.42 11.3875 16.3606 11.407 16.3021C11.748 15.281 12.0154 14.2418 12.2094 13.1923ZM6.14845 15.8753C6.11026 15.8763 6.07293 15.8809 6.03675 15.8885C4.56 15.1446 3.35522 13.9398 2.61135 12.4631C2.61899 12.4269 2.62349 12.3896 2.62458 12.3514C3.56839 12.6297 4.52503 12.8495 5.48911 13.0107C5.65034 13.9748 5.87012 14.9315 6.14845 15.8753ZM0.541504 9C0.541504 4.05245 4.55229 0.0416718 9.49984 0.0416718C14.4474 0.0416718 18.4582 4.05245 18.4582 9C18.4582 13.9476 14.4474 17.9583 9.49984 17.9583C4.55229 17.9583 0.541504 13.9476 0.541504 9Z" fill="white"/>
</svg>
