<svg width="20" height="20" viewBox="0 0 20 20" fill="none" xmlns="http://www.w3.org/2000/svg">
<path fill-rule="evenodd" clip-rule="evenodd" d="M5.97577 4.1749C5.97577 5.18189 5.15943 5.99823 4.15243 5.99823C3.14544 5.99823 2.3291 5.18189 2.3291 4.1749C2.3291 3.1679 3.14544 2.35156 4.15243 2.35156C5.15943 2.35156 5.97577 3.1679 5.97577 4.1749ZM7.69768 17.4958V7.38H10.7127V8.76334H10.7552C11.1743 7.96917 12.1993 7.13 13.7285 7.13C16.9135 7.13 17.5002 9.22417 17.5002 11.9492V17.4967H14.3577V12.5767C14.3577 11.4042 14.3377 9.895 12.7235 9.895C11.0868 9.895 10.8385 11.1733 10.8385 12.4933V17.4958H7.69768ZM5.72518 7.38H2.57935V17.4958H5.72518V7.38Z" fill="white"/>
</svg>
