<svg width="20" height="20" viewBox="0 0 20 20" fill="none" xmlns="http://www.w3.org/2000/svg">
<path d="M17.5003 8.33333H2.50033C2.04199 8.33333 1.66699 8.70833 1.66699 9.16666V13.4917C1.66699 13.6583 1.67533 13.825 1.69199 13.9917C1.85866 16.5583 3.44199 18.1417 6.00866 18.3083C6.17533 18.325 6.34199 18.3333 6.50866 18.3333H13.492C13.6587 18.3333 13.8253 18.325 13.992 18.3083C16.5587 18.1417 18.142 16.5583 18.3087 13.9917C18.3253 13.825 18.3337 13.6583 18.3337 13.4917V9.16666C18.3337 8.70833 17.9587 8.33333 17.5003 8.33333ZM6.66699 13.4583C6.95033 13.875 7.33366 14.2167 7.77533 14.4417C8.09199 14.5917 8.21699 14.9667 8.05866 15.2833C7.95033 15.5 7.72533 15.625 7.50033 15.625C7.40866 15.625 7.30866 15.6 7.22533 15.5583C6.57533 15.2417 6.02533 14.75 5.63366 14.1583C5.30033 13.6583 5.30033 13.0083 5.63366 12.5083C6.02533 11.9167 6.57533 11.425 7.22533 11.1083C7.53366 10.95 7.90866 11.075 8.05866 11.3833C8.21699 11.7 8.09199 12.075 7.77533 12.225C7.33366 12.45 6.95033 12.7917 6.66699 13.2083C6.61699 13.2833 6.61699 13.3833 6.66699 13.4583ZM14.542 14.1583C14.142 14.75 13.592 15.2417 12.9503 15.5583C12.8587 15.6 12.767 15.625 12.6753 15.625C12.442 15.625 12.2253 15.5 12.117 15.2833C11.9587 14.9667 12.0837 14.5917 12.392 14.4417C12.842 14.2167 13.2253 13.875 13.5003 13.4583C13.5587 13.3833 13.5587 13.2833 13.5003 13.2083C13.2253 12.7917 12.842 12.45 12.392 12.225C12.0837 12.075 11.9587 11.7 12.117 11.3833C12.267 11.075 12.642 10.95 12.9503 11.1083C13.592 11.425 14.142 11.9167 14.542 12.5083C14.8753 13.0083 14.8753 13.6583 14.542 14.1583Z" fill="#EBEBF5" fill-opacity="0.6"/>
<path d="M18.3337 6.50834V6.66667C18.3337 7.125 17.9587 7.5 17.5003 7.5L2.50033 7.50834C2.04199 7.50834 1.66699 7.13334 1.66699 6.675V6.50834C1.66699 6.34167 1.67533 6.175 1.69199 6.00834C1.85866 3.44167 3.44199 1.85834 6.00866 1.69167C6.17533 1.67501 6.34199 1.66667 6.50866 1.66667H13.492C13.6587 1.66667 13.8253 1.67501 13.992 1.69167C16.5587 1.85834 18.142 3.44167 18.3087 6.00834C18.3253 6.175 18.3337 6.34167 18.3337 6.50834Z" fill="#EBEBF5" fill-opacity="0.6"/>
</svg>
