<svg width="20" height="20" viewBox="0 0 20 20" fill="none" xmlns="http://www.w3.org/2000/svg">
<path fill-rule="evenodd" clip-rule="evenodd" d="M10.0216 1.66687C5.43079 1.66687 1.70996 5.3877 1.70996 9.97854C1.70996 13.6502 4.09079 16.766 7.39413 17.866C7.80996 17.941 7.95996 17.6852 7.95996 17.4652C7.95996 17.2677 7.95329 16.7444 7.95079 16.0519C5.63829 16.5535 5.14996 14.9369 5.14996 14.9369C4.77329 13.9769 4.22746 13.721 4.22746 13.721C3.47329 13.2052 4.28496 13.2169 4.28496 13.2169C5.11996 13.2752 5.55746 14.0735 5.55746 14.0735C6.29913 15.3435 7.50413 14.9769 7.97579 14.7644C8.05163 14.2269 8.26829 13.8602 8.50496 13.6527C6.65996 13.4435 4.71996 12.7302 4.71996 9.54437C4.71996 8.63854 5.04413 7.8952 5.57329 7.3152C5.48913 7.10437 5.20163 6.25854 5.65579 5.1152C5.65579 5.1152 6.35329 4.89104 7.94079 5.96604C8.61879 5.7816 9.31816 5.68745 10.0208 5.68604C10.7234 5.68718 11.4229 5.78133 12.1008 5.96604C13.6891 4.8902 14.3858 5.1152 14.3858 5.1152C14.84 6.25854 14.555 7.10437 14.4683 7.3152C15.0016 7.8952 15.3216 8.6377 15.3216 9.54437C15.3216 12.7385 13.38 13.4402 11.5283 13.646C11.8241 13.9027 12.0908 14.4094 12.0908 15.1844C12.0908 16.296 12.0808 17.1927 12.0808 17.4652C12.0808 17.6877 12.2291 17.946 12.6533 17.8644C15.955 16.7627 18.3333 13.6494 18.3333 9.97854C18.3333 5.3877 14.6125 1.66687 10.0216 1.66687Z" fill="white"/>
</svg>
