<svg width="18" height="16" viewBox="0 0 18 16" fill="none" xmlns="http://www.w3.org/2000/svg">
<path d="M13.167 0.916672H4.83366C2.33366 0.916672 0.666992 2.16667 0.666992 5.08334V10.9167C0.666992 13.8333 2.33366 15.0833 4.83366 15.0833H13.167C15.667 15.0833 17.3337 13.8333 17.3337 10.9167V5.08334C17.3337 2.16667 15.667 0.916672 13.167 0.916672ZM13.5587 5.99167L10.9503 8.07501C10.4003 8.51667 9.70033 8.73334 9.00033 8.73334C8.30033 8.73334 7.59199 8.51667 7.05033 8.07501L4.44199 5.99167C4.17533 5.77501 4.13366 5.375 4.34199 5.10834C4.55866 4.84167 4.95033 4.79167 5.21699 5.00834L7.82533 7.09167C8.45866 7.6 9.53366 7.6 10.167 7.09167L12.7753 5.00834C13.042 4.79167 13.442 4.83334 13.6503 5.10834C13.867 5.375 13.8253 5.77501 13.5587 5.99167Z" fill="#272727"/>
</svg>
