<svg width="16" height="16" viewBox="0 0 16 16" fill="none" xmlns="http://www.w3.org/2000/svg">
<path fill-rule="evenodd" clip-rule="evenodd" d="M4.78061 3.33989C4.78061 4.14549 4.12755 4.79856 3.32195 4.79856C2.51635 4.79856 1.86328 4.14549 1.86328 3.33989C1.86328 2.53429 2.51635 1.88123 3.32195 1.88123C4.12755 1.88123 4.78061 2.53429 4.78061 3.33989ZM6.15814 13.9966V5.90398H8.57014V7.01065H8.60414C8.93948 6.37531 9.75948 5.70398 10.9828 5.70398C13.5308 5.70398 14.0001 7.37931 14.0001 9.55931V13.9973H11.4861V10.0613C11.4861 9.12331 11.4701 7.91598 10.1788 7.91598C8.86948 7.91598 8.67081 8.93865 8.67081 9.99465V13.9966H6.15814ZM4.58014 5.90398H2.06348V13.9966H4.58014V5.90398Z" fill="#868990"/>
</svg>
