<?xml version="1.0" encoding="UTF-8"?>
<!DOCTYPE svg PUBLIC "-//W3C//DTD SVG 1.1//EN" "http://www.w3.org/Graphics/SVG/1.1/DTD/svg11.dtd">
<svg xmlns="http://www.w3.org/2000/svg" version="1.1" width="2048px" height="2048px" style="shape-rendering:geometricPrecision; text-rendering:geometricPrecision; image-rendering:optimizeQuality; fill-rule:evenodd; clip-rule:evenodd" xmlns:xlink="http://www.w3.org/1999/xlink">
<g><path style="opacity:0.995" fill="#f48022" d="M 1238.5,253.5 C 1239.68,253.281 1240.68,253.614 1241.5,254.5C 1372.29,430.578 1502.96,606.744 1633.5,783C 1598.68,809.244 1563.68,835.244 1528.5,861C 1527.36,861.749 1526.36,861.583 1525.5,860.5C 1395.03,684.192 1264.36,508.026 1133.5,332C 1168.93,306.3 1203.93,280.133 1238.5,253.5 Z"/></g>
<g><path style="opacity:0.995" fill="#f48022" d="M 995.5,464.5 C 1165.09,604.578 1334.25,745.245 1503,886.5C 1475.89,920.809 1448.06,954.809 1419.5,988.5C 1250.81,847.978 1081.98,707.645 913,567.5C 912.333,566.5 912.333,565.5 913,564.5C 940.747,531.32 968.247,497.987 995.5,464.5 Z"/></g>
<g><path style="opacity:0.995" fill="#f48022" d="M 800.5,738.5 C 806.34,740.082 812.007,742.248 817.5,745C 1011.65,835.91 1205.65,927.076 1399.5,1018.5C 1381.28,1058.66 1362.78,1098.66 1344,1138.5C 1144.64,1045.9 945.471,952.902 746.5,859.5C 764.786,819.263 782.786,778.93 800.5,738.5 Z"/></g>
<g><path style="opacity:0.996" fill="#f48022" d="M 688.5,1036.5 C 903.134,1081.39 1117.8,1126.23 1332.5,1171C 1333.52,1171.52 1334.18,1172.35 1334.5,1173.5C 1325.63,1216.63 1316.3,1259.63 1306.5,1302.5C 1091.58,1257.12 876.58,1212.12 661.5,1167.5C 670.115,1123.76 679.115,1080.09 688.5,1036.5 Z"/></g>
<g><path style="opacity:1" fill="#bcbbbb" d="M 384.5,1203.5 C 428.833,1203.5 473.167,1203.5 517.5,1203.5C 517.5,1335.5 517.5,1467.5 517.5,1599.5C 824.833,1599.5 1132.17,1599.5 1439.5,1599.5C 1439.5,1467.5 1439.5,1335.5 1439.5,1203.5C 1483.5,1203.5 1527.5,1203.5 1571.5,1203.5C 1571.5,1379.83 1571.5,1556.17 1571.5,1732.5C 1175.83,1732.5 780.167,1732.5 384.5,1732.5C 384.5,1556.17 384.5,1379.83 384.5,1203.5 Z"/></g>
<g><path style="opacity:0.994" fill="#f48023" d="M 647.5,1335.5 C 867.5,1335.5 1087.5,1335.5 1307.5,1335.5C 1307.5,1379.5 1307.5,1423.5 1307.5,1467.5C 1087.5,1467.5 867.5,1467.5 647.5,1467.5C 647.5,1423.5 647.5,1379.5 647.5,1335.5 Z"/></g>
</svg>
